<mxfile host="app.diagrams.net" modified="2020-12-16T15:22:20.436Z" agent="5.0 (Windows NT 10.0; Win64; x64) AppleWebKit/537.36 (KHTML, like Gecko) Chrome/87.0.4280.88 Safari/537.36" etag="TnKySHqS_hHJG_UVlBpm" version="14.0.0" type="github">
  <diagram id="Sy-a1GYnmS4wTFmJo3Hj" name="Page-1">
    <mxGraphModel dx="1038" dy="548" grid="1" gridSize="10" guides="1" tooltips="1" connect="1" arrows="1" fold="1" page="1" pageScale="1" pageWidth="827" pageHeight="1169" math="0" shadow="0">
      <root>
        <mxCell id="0" />
        <mxCell id="1" parent="0" />
        <mxCell id="TPo1pg6oQU_OulfIT7Oh-1" value="&lt;b style=&quot;font-size: 20px&quot;&gt;&lt;font style=&quot;font-size: 20px&quot;&gt;Use Case:&lt;br&gt;&lt;/font&gt;&lt;/b&gt;&lt;div style=&quot;font-size: 20px&quot;&gt;&lt;b&gt;Delete Reservation&lt;/b&gt;&lt;/div&gt;" style="text;html=1;align=left;verticalAlign=middle;resizable=0;points=[];autosize=1;" parent="1" vertex="1">
          <mxGeometry x="60" y="80" width="200" height="40" as="geometry" />
        </mxCell>
        <mxCell id="TPo1pg6oQU_OulfIT7Oh-2" style="edgeStyle=orthogonalEdgeStyle;rounded=0;orthogonalLoop=1;jettySize=auto;html=1;" parent="1" source="TPo1pg6oQU_OulfIT7Oh-3" target="TPo1pg6oQU_OulfIT7Oh-5" edge="1">
          <mxGeometry relative="1" as="geometry" />
        </mxCell>
        <mxCell id="TPo1pg6oQU_OulfIT7Oh-3" value="" style="ellipse;fillColor=#000000;strokeColor=none;" parent="1" vertex="1">
          <mxGeometry x="60" y="267.5" width="25" height="25" as="geometry" />
        </mxCell>
        <mxCell id="TPo1pg6oQU_OulfIT7Oh-4" style="edgeStyle=orthogonalEdgeStyle;rounded=0;orthogonalLoop=1;jettySize=auto;html=1;exitX=1;exitY=0.5;exitDx=0;exitDy=0;" parent="1" source="TPo1pg6oQU_OulfIT7Oh-5" target="TPo1pg6oQU_OulfIT7Oh-6" edge="1">
          <mxGeometry relative="1" as="geometry" />
        </mxCell>
        <mxCell id="TPo1pg6oQU_OulfIT7Oh-5" value="&lt;span style=&quot;font-size: 10px&quot;&gt;On Login Page&lt;/span&gt;" style="rounded=1;whiteSpace=wrap;html=1;strokeWidth=1;" parent="1" vertex="1">
          <mxGeometry x="140" y="260" width="92.5" height="40" as="geometry" />
        </mxCell>
        <mxCell id="TPo1pg6oQU_OulfIT7Oh-6" value="&lt;span style=&quot;font-size: 10px&quot;&gt;On Homepage&lt;/span&gt;" style="rounded=1;whiteSpace=wrap;html=1;strokeWidth=1;" parent="1" vertex="1">
          <mxGeometry x="490" y="260" width="92.5" height="40" as="geometry" />
        </mxCell>
        <mxCell id="TPo1pg6oQU_OulfIT7Oh-7" value="&lt;font style=&quot;font-size: 11px&quot;&gt;keystroke [User != validUser || Psw != ValidPsw]&lt;br&gt;/ display Login Page&lt;/font&gt;" style="text;html=1;align=center;verticalAlign=middle;resizable=0;points=[];autosize=1;" parent="1" vertex="1">
          <mxGeometry x="61.25" y="195" width="250" height="30" as="geometry" />
        </mxCell>
        <mxCell id="TPo1pg6oQU_OulfIT7Oh-8" value="&lt;font style=&quot;font-size: 11px&quot;&gt;&lt;span style=&quot;color: rgb(0 , 0 , 0) ; font-family: &amp;#34;helvetica&amp;#34; ; font-style: normal ; font-weight: 400 ; letter-spacing: normal ; text-indent: 0px ; text-transform: none ; word-spacing: 0px ; background-color: rgb(248 , 249 , 250) ; display: inline ; float: none&quot;&gt;keystroke [User == validUser &amp;amp;&amp;amp; Psw == ValidPsw]&lt;/span&gt;&lt;br style=&quot;color: rgb(0 , 0 , 0) ; font-family: &amp;#34;helvetica&amp;#34; ; font-style: normal ; font-weight: 400 ; letter-spacing: normal ; text-indent: 0px ; text-transform: none ; word-spacing: 0px ; background-color: rgb(248 , 249 , 250)&quot;&gt;&lt;span style=&quot;color: rgb(0 , 0 , 0) ; font-family: &amp;#34;helvetica&amp;#34; ; font-style: normal ; font-weight: 400 ; letter-spacing: normal ; text-indent: 0px ; text-transform: none ; word-spacing: 0px ; background-color: rgb(248 , 249 , 250) ; display: inline ; float: none&quot;&gt;/ display HomePage&lt;/span&gt;&lt;/font&gt;" style="text;whiteSpace=wrap;html=1;align=center;" parent="1" vertex="1">
          <mxGeometry x="232.5" y="242.5" width="257.5" height="50" as="geometry" />
        </mxCell>
        <mxCell id="TPo1pg6oQU_OulfIT7Oh-9" style="edgeStyle=orthogonalEdgeStyle;rounded=0;orthogonalLoop=1;jettySize=auto;html=1;exitX=0.75;exitY=0;exitDx=0;exitDy=0;entryX=0.25;entryY=0;entryDx=0;entryDy=0;" parent="1" source="TPo1pg6oQU_OulfIT7Oh-5" target="TPo1pg6oQU_OulfIT7Oh-5" edge="1">
          <mxGeometry relative="1" as="geometry">
            <Array as="points">
              <mxPoint x="209" y="230" />
              <mxPoint x="163" y="230" />
            </Array>
          </mxGeometry>
        </mxCell>
        <mxCell id="TPo1pg6oQU_OulfIT7Oh-10" style="edgeStyle=orthogonalEdgeStyle;rounded=0;orthogonalLoop=1;jettySize=auto;html=1;exitX=1;exitY=0.5;exitDx=0;exitDy=0;entryX=0;entryY=0.5;entryDx=0;entryDy=0;" parent="1" edge="1" target="TPo1pg6oQU_OulfIT7Oh-13" source="TPo1pg6oQU_OulfIT7Oh-6">
          <mxGeometry relative="1" as="geometry">
            <mxPoint x="700" y="280" as="targetPoint" />
            <mxPoint x="610" y="280" as="sourcePoint" />
          </mxGeometry>
        </mxCell>
        <mxCell id="TPo1pg6oQU_OulfIT7Oh-11" value="&lt;font style=&quot;font-size: 11px&quot;&gt;click [button == MyAccount]&amp;nbsp;&lt;br&gt;/ display MyAccount Page&lt;br&gt;&lt;/font&gt;" style="text;html=1;align=center;verticalAlign=middle;resizable=0;points=[];autosize=1;" parent="1" vertex="1">
          <mxGeometry x="585" y="242.5" width="150" height="30" as="geometry" />
        </mxCell>
        <mxCell id="TPo1pg6oQU_OulfIT7Oh-12" style="edgeStyle=orthogonalEdgeStyle;rounded=0;orthogonalLoop=1;jettySize=auto;html=1;exitX=1;exitY=0.5;exitDx=0;exitDy=0;entryX=0;entryY=0.5;entryDx=0;entryDy=0;" parent="1" source="TPo1pg6oQU_OulfIT7Oh-13" target="TPo1pg6oQU_OulfIT7Oh-15" edge="1">
          <mxGeometry relative="1" as="geometry" />
        </mxCell>
        <mxCell id="TPo1pg6oQU_OulfIT7Oh-13" value="&lt;span style=&quot;font-size: 10px&quot;&gt;On MyAccount Page&lt;/span&gt;" style="rounded=1;whiteSpace=wrap;html=1;strokeWidth=1;" parent="1" vertex="1">
          <mxGeometry x="730" y="260" width="92.5" height="40" as="geometry" />
        </mxCell>
        <mxCell id="TPo1pg6oQU_OulfIT7Oh-19" style="edgeStyle=orthogonalEdgeStyle;rounded=0;orthogonalLoop=1;jettySize=auto;html=1;exitX=1;exitY=0.5;exitDx=0;exitDy=0;entryX=0;entryY=0.5;entryDx=0;entryDy=0;" parent="1" source="TPo1pg6oQU_OulfIT7Oh-15" target="TPo1pg6oQU_OulfIT7Oh-18" edge="1">
          <mxGeometry relative="1" as="geometry" />
        </mxCell>
        <mxCell id="TPo1pg6oQU_OulfIT7Oh-20" value="click [button == RoomReservation ]&lt;br&gt;/ display Reservation Page" style="edgeLabel;html=1;align=center;verticalAlign=middle;resizable=0;points=[];" parent="TPo1pg6oQU_OulfIT7Oh-19" vertex="1" connectable="0">
          <mxGeometry x="-0.2501" relative="1" as="geometry">
            <mxPoint x="17.1" y="-20" as="offset" />
          </mxGeometry>
        </mxCell>
        <mxCell id="TPo1pg6oQU_OulfIT7Oh-15" value="&lt;span style=&quot;font-size: 10px&quot;&gt;On MyReservations Page&lt;/span&gt;" style="rounded=1;whiteSpace=wrap;html=1;strokeWidth=1;" parent="1" vertex="1">
          <mxGeometry x="998.75" y="260" width="92.5" height="40" as="geometry" />
        </mxCell>
        <mxCell id="TPo1pg6oQU_OulfIT7Oh-16" value="&lt;font style=&quot;font-size: 11px&quot;&gt;click [button == MyReservations]&amp;nbsp;&lt;br&gt;/ display MyReservations Page&lt;br&gt;&lt;/font&gt;" style="text;html=1;align=center;verticalAlign=middle;resizable=0;points=[];autosize=1;" parent="1" vertex="1">
          <mxGeometry x="818.75" y="242.5" width="180" height="30" as="geometry" />
        </mxCell>
        <mxCell id="TPo1pg6oQU_OulfIT7Oh-22" style="edgeStyle=orthogonalEdgeStyle;rounded=0;orthogonalLoop=1;jettySize=auto;html=1;exitX=1;exitY=0.5;exitDx=0;exitDy=0;entryX=0;entryY=0.5;entryDx=0;entryDy=0;" parent="1" source="TPo1pg6oQU_OulfIT7Oh-18" target="TPo1pg6oQU_OulfIT7Oh-21" edge="1">
          <mxGeometry relative="1" as="geometry" />
        </mxCell>
        <mxCell id="TPo1pg6oQU_OulfIT7Oh-23" value="click [button == deleteReservation]&lt;br&gt;/ display confirmCancellationPage" style="edgeLabel;html=1;align=center;verticalAlign=middle;resizable=0;points=[];" parent="TPo1pg6oQU_OulfIT7Oh-22" vertex="1" connectable="0">
          <mxGeometry x="-0.1743" relative="1" as="geometry">
            <mxPoint x="15.899999999999999" y="-20" as="offset" />
          </mxGeometry>
        </mxCell>
        <mxCell id="TPo1pg6oQU_OulfIT7Oh-18" value="&lt;span style=&quot;font-size: 10px&quot;&gt;On RoomReservation&amp;nbsp; Page&lt;/span&gt;" style="rounded=1;whiteSpace=wrap;html=1;strokeWidth=1;" parent="1" vertex="1">
          <mxGeometry x="1270" y="260" width="92.5" height="40" as="geometry" />
        </mxCell>
        <mxCell id="TPo1pg6oQU_OulfIT7Oh-25" style="edgeStyle=orthogonalEdgeStyle;rounded=0;orthogonalLoop=1;jettySize=auto;html=1;exitX=0.75;exitY=0;exitDx=0;exitDy=0;" parent="1" source="TPo1pg6oQU_OulfIT7Oh-21" target="Mvh5Mc5C0CMx6wv9Dtu0-1" edge="1">
          <mxGeometry relative="1" as="geometry">
            <mxPoint x="1910" y="270" as="targetPoint" />
            <Array as="points">
              <mxPoint x="1619" y="240" />
              <mxPoint x="1976" y="240" />
            </Array>
          </mxGeometry>
        </mxCell>
        <mxCell id="TPo1pg6oQU_OulfIT7Oh-26" value="click [confirmCancellation == true &amp;amp;&amp;amp; hoursLeft &amp;gt; 24]&lt;br&gt;/ delete Reservation &amp;amp;&amp;amp; return tokens &amp;amp;&amp;amp; send message to Host" style="edgeLabel;html=1;align=center;verticalAlign=middle;resizable=0;points=[];" parent="TPo1pg6oQU_OulfIT7Oh-25" vertex="1" connectable="0">
          <mxGeometry x="-0.2325" relative="1" as="geometry">
            <mxPoint x="44.5" y="-20" as="offset" />
          </mxGeometry>
        </mxCell>
        <mxCell id="TPo1pg6oQU_OulfIT7Oh-27" style="edgeStyle=orthogonalEdgeStyle;rounded=0;orthogonalLoop=1;jettySize=auto;html=1;exitX=0.25;exitY=1;exitDx=0;exitDy=0;entryX=0.5;entryY=1;entryDx=0;entryDy=0;" parent="1" source="TPo1pg6oQU_OulfIT7Oh-21" target="TPo1pg6oQU_OulfIT7Oh-18" edge="1">
          <mxGeometry relative="1" as="geometry">
            <Array as="points">
              <mxPoint x="1493" y="320" />
              <mxPoint x="1246" y="320" />
            </Array>
          </mxGeometry>
        </mxCell>
        <mxCell id="TPo1pg6oQU_OulfIT7Oh-28" value="click [confirmCancellation == false]&lt;br&gt;/ null" style="edgeLabel;html=1;align=center;verticalAlign=middle;resizable=0;points=[];" parent="TPo1pg6oQU_OulfIT7Oh-27" vertex="1" connectable="0">
          <mxGeometry x="-0.152" y="-2" relative="1" as="geometry">
            <mxPoint x="-27.52" y="22" as="offset" />
          </mxGeometry>
        </mxCell>
        <mxCell id="TPo1pg6oQU_OulfIT7Oh-30" style="edgeStyle=orthogonalEdgeStyle;rounded=0;orthogonalLoop=1;jettySize=auto;html=1;exitX=0.75;exitY=1;exitDx=0;exitDy=0;entryX=0.5;entryY=1;entryDx=0;entryDy=0;" parent="1" source="TPo1pg6oQU_OulfIT7Oh-21" target="Mvh5Mc5C0CMx6wv9Dtu0-1" edge="1">
          <mxGeometry relative="1" as="geometry">
            <mxPoint x="1910" y="290" as="targetPoint" />
            <Array as="points">
              <mxPoint x="1619" y="320" />
              <mxPoint x="1976" y="320" />
            </Array>
          </mxGeometry>
        </mxCell>
        <mxCell id="TPo1pg6oQU_OulfIT7Oh-31" value="click [confirmCancellation == true &amp;amp;&amp;amp; hoursLeft &amp;lt;= 24]&lt;br&gt;/ delete Reservation &amp;amp;&amp;amp; send message to Host" style="edgeLabel;html=1;align=center;verticalAlign=middle;resizable=0;points=[];" parent="TPo1pg6oQU_OulfIT7Oh-30" vertex="1" connectable="0">
          <mxGeometry x="0.0669" y="1" relative="1" as="geometry">
            <mxPoint x="3.6" y="19" as="offset" />
          </mxGeometry>
        </mxCell>
        <mxCell id="TPo1pg6oQU_OulfIT7Oh-21" value="&lt;span style=&quot;font-size: 10px&quot;&gt;On Confirm Cancellation Page&lt;/span&gt;" style="rounded=1;whiteSpace=wrap;html=1;strokeWidth=1;" parent="1" vertex="1">
          <mxGeometry x="1550" y="260" width="92.5" height="40" as="geometry" />
        </mxCell>
        <mxCell id="TPo1pg6oQU_OulfIT7Oh-37" value="" style="ellipse;html=1;shape=endState;fillColor=#000000;strokeColor=#000000;" parent="1" vertex="1">
          <mxGeometry x="2120" y="267.5" width="25" height="25" as="geometry" />
        </mxCell>
        <mxCell id="Mvh5Mc5C0CMx6wv9Dtu0-2" style="edgeStyle=orthogonalEdgeStyle;rounded=0;orthogonalLoop=1;jettySize=auto;html=1;exitX=1;exitY=0.5;exitDx=0;exitDy=0;entryX=0;entryY=0.5;entryDx=0;entryDy=0;" edge="1" parent="1" source="Mvh5Mc5C0CMx6wv9Dtu0-1" target="TPo1pg6oQU_OulfIT7Oh-37">
          <mxGeometry relative="1" as="geometry" />
        </mxCell>
        <mxCell id="Mvh5Mc5C0CMx6wv9Dtu0-1" value="&lt;span style=&quot;font-size: 10px&quot;&gt;DeletedReservation&lt;/span&gt;" style="rounded=1;whiteSpace=wrap;html=1;strokeWidth=1;" vertex="1" parent="1">
          <mxGeometry x="1930" y="260" width="92.5" height="40" as="geometry" />
        </mxCell>
      </root>
    </mxGraphModel>
  </diagram>
</mxfile>
